<svg version="1.2" xmlns="http://www.w3.org/2000/svg" viewBox="0 0 759 759" width="1000" height="1000">
	<style>
		.s0 { fill: #ffffff } 
	</style>
	<path class="s0" d="m380 10.69c160.62 0 290.91 129.31 290.91 288.89 0 87.41-39.35 168.46-105.89 222.96-11.65 9.55-28.84 7.85-38.39-3.8-9.55-11.64-7.85-28.83 3.8-38.38 54.08-44.27 85.94-109.92 85.94-180.79 0-129.37-105.79-234.35-236.37-234.35-130.57 0-236.36 104.98-236.36 234.35 0 129.52 105.89 234.9 236.36 234.9h101.29c40.16 0 72.72 32.55 72.72 72.71v48.81c0 50.21-40.69 90.89-90.91 90.89h-166.76c-50.21 0-90.91-40.68-90.91-90.89v-32.09c0-15.05 12.18-27.27 27.27-27.27 15.06 0 27.28 12.22 27.28 27.27v32.09c0 20.1 16.26 36.36 36.36 36.36h166.76c20.07 0 36.37-16.26 36.37-36.36v-48.81c0-10.05-8.14-18.18-18.18-18.18h-101.29c-160.54 0-290.91-129.73-290.91-289.43 0-159.59 130.3-288.89 290.91-288.88zm5.68 216.64c4.62 1.17 8.2 4.83 9.31 9.48l6.99 29.22c3.13 12.96 13.1 23.18 26 26.63l26.88 7.17c6.35 1.7 10.15 8.2 8.45 14.56-1.14 4.29-4.55 7.56-8.84 8.55l-23.65 5.4c-14.1 3.23-24.97 14.52-27.63 28.72l-7.92 42.29c-1.32 6.81-7.85 11.29-14.67 10.01-5.08-0.96-9.05-4.94-10.01-10.01l-7.92-42.15c-2.7-14.27-13.64-25.59-27.81-28.79l-24.75-5.54c-6.46-1.42-10.51-7.84-9.09-14.27 1-4.37 4.3-7.81 8.59-8.95l26.67-7.1c12.65-3.37 22.52-13.31 25.82-25.99l7.81-30c1.78-6.89 8.84-11.04 15.77-9.23z"/>
</svg>