<svg version="1.2" xmlns="http://www.w3.org/2000/svg" viewBox="0 0 90 90" width="90" height="90"><style>path { fill: #000000; }</style><path fill-rule="evenodd" d="m76.5 76.5h9v9h-9z"/><path fill-rule="evenodd" d="m67.5 67.5h9v9h-9z"/><path fill-rule="evenodd" d="m58.5 58.5h9v9h-9z"/><path fill-rule="evenodd" d="m22.5 22.5h9v9h-9z"/><path fill-rule="evenodd" d="m13.5 13.5h9v9h-9z"/><path fill-rule="evenodd" d="m4.5 4.5h9v9h-9z"/><path fill-rule="evenodd" d="m4.5 76.5h9v9h-9z"/><path fill-rule="evenodd" d="m13.5 67.5h9v9h-9z"/><path fill-rule="evenodd" d="m22.5 58.5h9v9h-9z"/><path fill-rule="evenodd" d="m49.5 31.5v-9-9-9h-9v9 9 9h-9v9h-9-9-9v9h9 9 9v9h9v9 9 9h9v-9-9-9h9v-9h9 9 9v-9h-9-9-9v-9z"/><path fill-rule="evenodd" d="m58.5 22.5h9v9h-9z"/><path fill-rule="evenodd" d="m67.5 13.5h9v9h-9z"/><path fill-rule="evenodd" d="m76.5 4.5h9v9h-9z"/></svg>